<svg width="212" height="213" viewBox="0 0 212 213" fill="none" xmlns="http://www.w3.org/2000/svg">
<path d="M104 35C104 37.4184 102.715 39.6556 100.547 41.3085C98.379 42.9613 95.359 44 92 44C88.6413 44 85.6212 42.9613 83.4533 41.3085C81.2847 39.6556 80 37.4184 80 35C80 32.5816 81.2847 30.3444 83.4533 28.6915C85.6212 27.0387 88.6413 26 92 26C95.359 26 98.379 27.0387 100.547 28.6915C102.715 30.3444 104 32.5816 104 35Z" stroke="white"/>
<path d="M64 63.5H212" stroke="white"/>
<path d="M75 45L108 45" stroke="white"/>
<path d="M64 82.5H212" stroke="white"/>
<path d="M64 101.5H212" stroke="white"/>
<path d="M64 120.5H212" stroke="white"/>
<path d="M64 139.5H212" stroke="white"/>
<path d="M63.5 140V63" stroke="white"/>
<path d="M13.7724 121.981C11.9868 111.263 28.2842 101.461 40.7463 106.173C53.2084 110.886 55.6631 122.923 50.3761 131.971C45.0892 141.019 33.0047 143.106 21.2979 141.019C9.59109 138.932 -7.90548 124.352 6.33106 99.2597C18.4656 77.8722 19.9734 65.9659 19.9734 58.9429C19.9734 51.5609 15.6326 39.6362 11.9868 43.895C8.34103 48.1538 9.12276 63.2252 19.9734 88.1867C32.6856 117.431 36.0961 143.86 36.0961 152.069C36.0961 167.368 16.2528 160.587 25.8581 149.798" stroke="white"/>
</svg>