<svg width="212" height="171" viewBox="0 0 212 171" fill="none" xmlns="http://www.w3.org/2000/svg">
<path d="M80 116.5H119" stroke="white"/>
<path d="M111.5 116.5C111.5 118.784 110.215 120.897 108.047 122.458C105.879 124.019 102.859 125 99.5 125C96.1413 125 93.1212 124.019 90.9533 122.458C88.7847 120.897 87.5 118.784 87.5 116.5C87.5 114.216 88.7847 112.103 90.9533 110.542C93.1212 108.981 96.1413 108 99.5 108C102.859 108 105.879 108.981 108.047 110.542C110.215 112.103 111.5 114.216 111.5 116.5Z" stroke="white"/>
<path d="M64 21.5H212" stroke="white"/>
<path d="M64 40.5H212" stroke="white"/>
<path d="M64 59.5H212" stroke="white"/>
<path d="M64 78.5H212" stroke="white"/>
<path d="M64 97.5H212" stroke="white"/>
<path d="M63.5 98V21" stroke="white"/>
<path d="M13.7724 79.9808C11.9868 69.2626 28.2842 59.4607 40.7463 64.1731C53.2084 68.8856 55.6631 80.9233 50.3761 89.9712C45.0892 99.0192 33.0047 101.106 21.2979 99.0192C9.59109 96.9319 -7.90548 82.3519 6.33106 57.2597C18.4656 35.8722 19.9734 23.9659 19.9734 16.9429C19.9734 9.5609 15.6326 -2.3638 11.9868 1.89499C8.34103 6.15377 9.12276 21.2252 19.9734 46.1867C32.6856 75.4307 36.0961 101.86 36.0961 110.069C36.0961 125.368 16.2528 118.587 25.8581 107.798" stroke="white"/>
</svg>