<svg width="212" height="171" viewBox="0 0 212 171" fill="none" xmlns="http://www.w3.org/2000/svg">
<path d="M111 40C111 42.4184 109.715 44.6556 107.547 46.3085C105.379 47.9613 102.359 49 99 49C95.6413 49 92.6212 47.9613 90.4533 46.3085C88.2847 44.6556 87 42.4184 87 40C87 37.5816 88.2847 35.3444 90.4533 33.6915C92.6212 32.0387 95.6413 31 99 31C102.359 31 105.379 32.0387 107.547 33.6915C109.715 35.3444 111 37.5816 111 40Z" stroke="white"/>
<path d="M64 21.5H212" stroke="white"/>
<path d="M64 40.5H212" stroke="white"/>
<path d="M64 59.5H212" stroke="white"/>
<path d="M64 78.5H212" stroke="white"/>
<path d="M64 97.5H212" stroke="white"/>
<path d="M63.5 98V21" stroke="white"/>
<path d="M13.7724 79.9808C11.9868 69.2626 28.2842 59.4607 40.7463 64.1731C53.2084 68.8856 55.6631 80.9233 50.3761 89.9712C45.0892 99.0192 33.0047 101.106 21.2979 99.0192C9.59109 96.9319 -7.90548 82.3519 6.33106 57.2597C18.4656 35.8722 19.9734 23.9659 19.9734 16.9429C19.9734 9.5609 15.6326 -2.3638 11.9868 1.89499C8.34103 6.15377 9.12276 21.2252 19.9734 46.1867C32.6856 75.4307 36.0961 101.86 36.0961 110.069C36.0961 125.368 16.2528 118.587 25.8581 107.798" stroke="white"/>
</svg>